<svg xmlns="http://www.w3.org/2000/svg"  viewBox="0 0 64 64" width="96px" height="96px"><linearGradient id="KlT3OeaLTxa_Umq2VsMHXa" x1="21.304" x2="21.304" y1="23.616" y2="42.621" gradientUnits="userSpaceOnUse"><stop offset="0" stop-color="#6dc7ff"/><stop offset="1" stop-color="#e6abff"/></linearGradient><path fill="url(#KlT3OeaLTxa_Umq2VsMHXa)" d="M14.607,30.531c0,0,3.447,11.568,13.393,12.469v-4c-6-1-8-8-8-8s3-3,7-3	c0.348,0,0.679,0.034,1,0.084v-4.073c-0.33-0.013-0.661-0.024-1-0.012C19.763,24.265,14.607,30.531,14.607,30.531z"/><linearGradient id="KlT3OeaLTxa_Umq2VsMHXb" x1="15" x2="15" y1="15.695" y2="50.696" gradientUnits="userSpaceOnUse"><stop offset="0" stop-color="#6dc7ff"/><stop offset="1" stop-color="#e6abff"/></linearGradient><path fill="url(#KlT3OeaLTxa_Umq2VsMHXb)" d="M28,47C13.621,45.294,9,30,9,30s8-10,18-10c0.336,0,0.667,0.035,1,0.054v-4.039	c-0.332-0.008-0.663-0.018-1-0.015C12.965,16.136,2,29,2,29s6,21,26,22V47z"/><linearGradient id="KlT3OeaLTxa_Umq2VsMHXc" x1="32.076" x2="32.076" y1="15.371" y2="52.417" gradientUnits="userSpaceOnUse"><stop offset="0" stop-color="#1a6dff"/><stop offset="1" stop-color="#c822ff"/></linearGradient><path fill="url(#KlT3OeaLTxa_Umq2VsMHXc)" d="M29.818,52.045c-0.62,0-1.241-0.015-1.868-0.046C7.472,50.975,1.101,29.492,1.039,29.275	l-0.147-0.516l0.348-0.408C1.699,27.812,12.664,15.139,26.99,15c0.097-0.001,0.196-0.001,0.293-0.001	c15.468,0,26.024,11.835,26.468,12.342l0.541,0.617l-1.06,1.384c-4.222,5.541-12.087,15.863-25.324,14.654	c-10.5-0.952-14.112-12.681-14.261-13.18l-0.152-0.51l0.338-0.411c0.222-0.27,5.529-6.616,13.128-6.895	c7.223-0.27,12.529,5.073,12.751,5.3l0.772,0.79l-6.866,5.493l-0.531-1.169C33.067,33.365,31.012,29,27,29	c-2.679,0-4.91,1.553-5.835,2.307c0.612,1.6,2.667,5.985,7,6.707c8.917,1.482,14.956-6.462,16.548-8.849	C42.604,27.26,35.061,21,27,21c-8.262,0-15.254,7.375-16.869,9.214c0.948,2.595,5.889,14.357,17.987,15.793	c13.185,1.575,25.857-12.078,25.983-12.215l0.573-0.624l8.588,5.586l-1.037,0.868C61.599,40.146,47.182,52.044,29.818,52.045z M3.129,29.241c1.084,3.174,7.612,19.895,24.921,20.76c14.754,0.745,28.015-8.242,31.81-11.073l-4.873-3.17	c-2.746,2.784-14.438,13.738-27.104,12.235C13.025,46.23,8.091,30.448,8.043,30.289l-0.152-0.503l0.329-0.411	C8.558,28.952,16.639,19,27,19c10.296,0,19.328,8.914,19.707,9.293l0.539,0.539l-0.377,0.663c-0.072,0.127-1.809,3.146-4.991,5.958	c-4.282,3.785-9.138,5.35-14.042,4.534c-6.548-1.091-8.708-8.401-8.797-8.711l-0.162-0.566l0.416-0.416	C19.427,30.158,22.636,27,27,27c3.877,0,6.253,2.853,7.294,4.484l3.158-2.526c-1.656-1.369-5.623-4.141-10.416-3.958	c-5.646,0.207-10.036,4.421-11.293,5.762c0.799,2.179,4.367,10.52,12.347,11.243c12.144,1.112,19.285-8.273,23.552-13.874	l0.046-0.06C49.334,25.682,39.776,16.909,27.01,17C14.997,17.116,5.125,27.083,3.129,29.241z"/></svg>