<?xml version="1.0" encoding="utf-8"?>
<!-- Generator: Adobe Illustrator 26.0.3, SVG Export Plug-In . SVG Version: 6.00 Build 0)  -->
<svg version="1.0" id="katman_1" xmlns="http://www.w3.org/2000/svg" xmlns:xlink="http://www.w3.org/1999/xlink" x="0px" y="0px"
	 viewBox="0 0 164.1 120.7" style="enable-background:new 0 0 164.1 120.7;" xml:space="preserve">
<style type="text/css">
	.st0{fill:#29A1CF;}
	.st1{fill:#FF561F;}
	.st2{fill:#FFE797;}
	.st3{fill:#FFD136;}
	.st4{fill:#2C9F48;}
	.st5{fill:#36B64B;}
	.st6{fill:#338139;}
	.st7{fill:#928E3C;}
	.st8{fill:#FF922B;}
	.st9{fill:#FFC88C;}
	.st10{fill:#FFB283;}
	.st11{fill:#2B2E34;}
</style>
<path class="st0" d="M34.6,41.2c1.1,0,1.9-0.9,1.9-1.9c0-1.1-0.9-1.9-1.9-1.9c-1.1,0-1.9,0.9-1.9,1.9C32.6,40.3,33.6,41.2,34.6,41.2
	z"/>
<path class="st0" d="M21.3,46.6c-1.5,0.6-2.2,2.3-1.6,3.8c0.6,1.5,2.3,2.2,3.8,1.6c1.5-0.6,2.2-2.3,1.6-3.8
	C24.5,46.7,22.8,46,21.3,46.6z"/>
<path class="st1" d="M33.6,51.1c0.5,0.8,1.1,1.6,1.8,2.1c0.4-1.4,1.1-2.6,2.1-3.6c-0.6-0.5-1.1-0.8-1.7-1.1
	C35.5,49.6,34.7,50.5,33.6,51.1z"/>
<path class="st2" d="M40,54.8c-1.7,0-3.2-0.6-4.5-1.6c-0.2,0.7-0.3,1.6-0.2,2.3c0.1,1.8,0.9,3.6,2.2,4.9C39.1,59,40.1,57,40,54.8z"
	/>
<path class="st3" d="M35.3,55.6c-0.1-0.8,0-1.6,0.2-2.4c-0.7-0.6-1.4-1.3-1.8-2.1c-0.2,0.1-0.3,0.2-0.5,0.2
	c-1.9,0.8-4.1,0.3-5.6-1.3c-1.9,2-2.5,5-1.5,7.7c1.5,3.7,5.7,5.4,9.4,3.9c0.7-0.3,1.4-0.7,2-1.2C36.2,59.2,35.4,57.4,35.3,55.6z"/>
<path class="st4" d="M33.2,51.4c0.2-0.1,0.4-0.2,0.5-0.2c-0.2-0.3-0.3-0.6-0.5-0.8c-0.3-0.7-0.5-1.6-0.6-2.4c-1.9,0-3.8,0.8-5.1,2.2
	C29.1,51.6,31.3,52.1,33.2,51.4z"/>
<path class="st5" d="M34.4,42.8c-1.4-1.1-3.3-1.4-5-0.6c-2.6,1-3.8,3.9-2.8,6.5c0.2,0.6,0.6,1,0.9,1.5c0.7-0.7,1.6-1.3,2.5-1.7
	c0.8-0.4,1.7-0.6,2.7-0.6C32.6,46.1,33.2,44.2,34.4,42.8z"/>
<path class="st6" d="M35.9,48.5c-1-0.5-2.1-0.7-3.2-0.7c0,0.8,0.2,1.7,0.6,2.4c0.1,0.3,0.3,0.6,0.5,0.8
	C34.7,50.5,35.5,49.6,35.9,48.5z"/>
<path class="st7" d="M35.9,44.9c-0.4-0.8-0.8-1.5-1.6-2c-1.2,1.4-1.7,3.2-1.7,5c1.1,0,2.2,0.2,3.2,0.7C36.4,47.3,36.4,46,35.9,44.9z
	"/>
<path class="st8" d="M46.9,44.7c-1.6-3.8-5.9-5.5-9.5-3.9c-1.1,0.5-2.1,1.2-2.8,2.1c0.6,0.6,1.2,1.2,1.6,2c0.5,1.2,0.5,2.6,0,3.8
	c0.6,0.3,1.2,0.6,1.7,1.1c1.3-1.2,2.8-1.9,4.6-2c1.7-0.1,3.5,0.4,5,1.5C47.5,47.7,47.4,46.1,46.9,44.7z"/>
<path class="st9" d="M42.2,47.7c-1.7,0.1-3.3,0.8-4.6,2c0.8,0.7,1.4,1.6,1.8,2.6c0.4,0.8,0.6,1.7,0.6,2.6c1,0,1.9-0.2,2.8-0.6
	c2.2-0.9,3.8-2.8,4.3-5C45.8,48.1,44,47.6,42.2,47.7z"/>
<path class="st10" d="M37.6,49.7c-1,0.9-1.7,2.2-2.1,3.6c1.3,1,2.8,1.6,4.5,1.6c0-0.8-0.2-1.7-0.6-2.6
	C39.1,51.3,38.4,50.4,37.6,49.7z"/>
<path class="st11" d="M56.9,54.1c-1.8-1.8-4.4-2.8-7.8-2.8h-0.1c0.6,1,1.1,2.3,1.1,3.5c0,0.3,0,0.6,0,0.8c1.5,0.2,2.8,0.9,3.7,2.1
	c1.3,1.8,1.9,4,1.7,6.2c0,2.7-0.6,4.8-1.7,6.2c-1.1,1.5-2.8,2.3-4.7,2.2c-1.8,0.1-3.6-0.7-4.8-2.2c-1.2-1.5-1.7-3.6-1.7-6.2
	c0-0.5,0-0.8,0.1-1.3c-1.7,0-3.5-0.6-4.8-1.8c-0.2,1-0.3,2-0.2,3c0,4.3,1.2,7.6,3.7,9.9c1.8,1.8,4.4,2.8,7.8,2.8
	c3.4,0,6.1-0.9,7.8-2.8c2.4-2.3,3.6-5.6,3.6-9.8C60.5,59.6,59.3,56.3,56.9,54.1z"/>
<path class="st11" d="M73.1,63.8c-0.6-1.1-1.8-1.7-3-1.6c-1.6-0.1-3,0.9-3.5,2.4c-0.4,1-0.6,2.1-0.5,3.2c0,2,0.6,3.5,1.7,4.3
	c0.6,0.5,1.5,0.7,2.3,0.7c1.2,0.1,2.3-0.6,2.9-1.5c0.7-1.2,1.1-2.6,1-3.9C74.1,66.1,73.7,64.9,73.1,63.8z M76.7,60.4
	c1.5,1.6,2.2,3.8,2.2,6.7c0,3.1-0.7,5.5-2.1,7.2c-1.4,1.6-3.3,2.5-5.4,2.5c-1.3,0.1-2.5-0.4-3.5-1.1c-0.6-0.5-1.1-1-1.5-1.7V83h-4.6
	V58.4h4.4V61c0.5-0.6,1-1.3,1.6-1.8c1.1-0.8,2.4-1.2,3.7-1.2C73.4,58.1,75.3,58.9,76.7,60.4z"/>
<path class="st11" d="M85.7,62.8c-0.7,0.7-1.1,1.7-1.2,2.8h8c0-1.1-0.5-2.1-1.2-2.8c-0.7-0.6-1.7-1-2.8-0.9
	C87.4,61.7,86.4,62.1,85.7,62.8z M92.5,58.9c1.3,0.6,2.3,1.5,3,2.6c0.7,1.1,1.2,2.4,1.4,3.7c0.2,1.2,0.2,2.3,0.2,3.5H84.3
	c-0.1,1.5,0.6,2.9,1.8,3.8c0.7,0.5,1.7,0.7,2.6,0.6c0.9,0,1.8-0.3,2.6-0.8c0.4-0.4,0.7-0.7,0.9-1.2h4.7c-0.2,1.2-0.8,2.4-1.7,3.2
	C93.4,76,91,77,88.5,76.8c-2.3,0-4.5-0.7-6.2-2.2c-1.8-1.5-2.7-3.8-2.7-7.1c0-3,0.8-5.4,2.5-7.1c1.7-1.7,3.9-2.6,6.3-2.5
	C89.8,58,91.3,58.3,92.5,58.9z"/>
<path class="st11" d="M112.5,59.5c1.2,0.9,1.7,2.6,1.7,4.8v11.9h-4.8V65.5c0-0.7-0.1-1.5-0.4-2.1c-0.5-0.9-1.6-1.5-2.6-1.4
	c-1.4-0.1-2.7,0.7-3.2,2c-0.4,0.8-0.5,1.7-0.5,2.7v9.5h-4.6V58.6h4.5v2.6c0.5-0.7,1-1.4,1.7-1.9c1-0.7,2.3-1.1,3.6-1.1
	C109.7,58,111.3,58.5,112.5,59.5z"/>
<path class="st11" d="M121.2,76.1h-5.9l7.8-12.3L115.8,52h6.1l4.3,7.9l4.4-7.9h5.9l-7.3,11.7l7.8,12.5h-6.1l-4.6-8.3L121.2,76.1z"/>
<path class="st11" d="M141.6,72c-0.2-0.1-0.5-0.2-0.7-0.1h-0.5v1.2h0.5c0.2,0,0.4,0,0.6-0.1c0.2-0.1,0.4-0.3,0.4-0.6
	C141.9,72.3,141.8,72.1,141.6,72z M141,71.6c0.3,0,0.6,0,0.9,0.1c0.4,0.1,0.6,0.5,0.6,0.8c0,0.3-0.1,0.6-0.4,0.6
	c-0.2,0.1-0.3,0.2-0.5,0.2c0.2,0,0.5,0.2,0.6,0.4c0.1,0.2,0.2,0.4,0.2,0.6v0.3c0,0.1,0,0.2,0,0.3c0,0.1,0,0.1,0,0.2h-0.6v-0.1v-0.3
	c0-0.3-0.1-0.6-0.3-0.7c-0.2-0.1-0.5-0.1-0.6-0.1h-0.5V75h-0.6v-3.3h1.1V71.6z M139.2,71.4c-0.5,0.5-0.7,1.1-0.7,1.8
	s0.3,1.4,0.7,1.8c0.5,0.5,1.1,0.7,1.8,0.7c0.7,0,1.4-0.3,1.8-0.7c0.5-0.5,0.7-1.2,0.7-1.8c0-0.6-0.3-1.4-0.7-1.8
	c-0.5-0.5-1.1-0.7-1.8-0.7C140.3,70.5,139.7,70.8,139.2,71.4z M143.2,75.3c-0.6,0.6-1.3,0.9-2.1,0.9c-0.8,0-1.6-0.3-2.1-0.9
	c-0.6-0.6-0.9-1.4-0.9-2.1c0-0.8,0.3-1.6,0.9-2.1c0.6-0.6,1.3-0.9,2.1-0.9c0.8,0,1.6,0.3,2.1,0.9c0.6,0.6,0.9,1.3,0.9,2.1
	C144.1,73.9,143.7,74.8,143.2,75.3z"/>
</svg>
