<?xml version="1.0" encoding="UTF-8"?>
<svg id="Capa_2" xmlns="http://www.w3.org/2000/svg" viewBox="0 0 102.92 20.41">
  <defs>
    <style>
      .cls-1 {
        fill: #1e293b;
      }
    </style>
  </defs>
  <g id="Capa_1-2" data-name="Capa_1">
    <g>
      <path class="cls-1" d="M36.91,8.39h7.51v1.83l-3.92.63c-1.12.17-2.06.47-2.82.88-.75.42-1.31.93-1.67,1.54-.36.61-.54,1.32-.54,2.11,0,.85.2,1.58.6,2.19.4.61.97,1.09,1.71,1.41.74.33,1.63.49,2.65.49.76,0,1.45-.1,2.08-.3.62-.2,1.18-.5,1.69-.91.27-.22.53-.48.78-.76l.75,1.66h2.59V5.02h-10.25l-1.15,3.37ZM44.02,15.1c-.27.48-.64.85-1.13,1.13-.48.28-1.05.42-1.69.42-.48,0-.89-.12-1.22-.36-.33-.24-.49-.58-.49-1.01,0-.47.15-.83.44-1.08.29-.25.72-.43,1.27-.53l3.22-.47v.34c0,.57-.13,1.09-.4,1.57Z"/>
      <path class="cls-1" d="M69,5.38c-.79-.45-1.69-.67-2.71-.67-1.16,0-2.17.28-3.04.83-.52.33-.96.77-1.34,1.32-.29-.49-.7-.91-1.22-1.26-.89-.6-1.92-.9-3.1-.9-1.11,0-2.06.26-2.85.78-.53.34-1.05.69-1.4,1.2l-.75-1.67h-2.59v14.17h3.89v-8.28c0-.55.1-1.03.3-1.43.2-.4.48-.71.86-.93.37-.22.81-.34,1.31-.34s.96.11,1.32.34c.36.23.64.54.84.93.2.4.3.87.3,1.43v8.28h3.89v-8.28c0-.55.1-1.03.3-1.43.2-.4.48-.71.86-.93.37-.22.81-.34,1.31-.34s.96.11,1.32.34c.36.23.64.54.84.93.2.4.3.87.3,1.43v8.28h3.89v-9.11c0-1.07-.23-2.01-.67-2.82-.45-.8-1.07-1.43-1.86-1.88Z"/>
      <path class="cls-1" d="M84.55,5.69c-1.09-.66-2.31-.99-3.66-.99-1.04,0-1.96.19-2.76.58-.5.24-.94.55-1.31.92V0l-3.89,2.23v16.95h2.59l.7-1.76c.5.67,1.15,1.19,1.96,1.53.82.35,1.72.53,2.69.53,1.38,0,2.62-.33,3.71-.99,1.09-.66,1.95-1.55,2.58-2.67.63-1.12.95-2.37.95-3.74s-.32-2.63-.96-3.75c-.64-1.12-1.5-2-2.59-2.66ZM83.62,14.12c-.31.59-.74,1.05-1.3,1.38-.55.33-1.19.49-1.92.49s-1.31-.16-1.86-.49c-.54-.33-.97-.79-1.27-1.38-.3-.59-.45-1.26-.45-2.02s.15-1.44.45-2.02c.3-.59.73-1.05,1.27-1.38.54-.33,1.16-.49,1.86-.49.73,0,1.37.17,1.92.51.55.34.99.8,1.3,1.38.31.58.47,1.25.47,2.01s-.16,1.44-.47,2.02Z"/>
      <path class="cls-1" d="M102.45,8.95c-.31-.84-.77-1.58-1.36-2.22-.6-.64-1.33-1.14-2.19-1.49-.87-.35-1.86-.53-2.98-.53-1.35,0-2.56.32-3.63.96-1.07.64-1.92,1.51-2.56,2.62-.63,1.11-.95,2.37-.95,3.79s.3,2.61.91,3.74c.61,1.12,1.46,2.02,2.57,2.69,1.11.67,2.41,1,3.92,1,.97,0,1.86-.14,2.67-.43.81-.29,1.52-.69,2.11-1.21.6-.52,1.03-1.12,1.31-1.82l-3.11-1.48c-.28.48-.66.87-1.15,1.14-.49.28-1.09.42-1.78.42-.76,0-1.41-.17-1.95-.51-.54-.34-.93-.81-1.19-1.41-.13-.31-.22-.65-.27-1.01h9.92c.07-.19.12-.42.14-.69.03-.27.04-.54.04-.82,0-.99-.16-1.9-.47-2.74ZM94.18,8.31c.48-.33,1.06-.49,1.74-.49s1.28.17,1.75.51c.48.34.81.8,1,1.38.07.2.11.41.13.64h-5.88c.04-.2.1-.39.17-.57.24-.64.61-1.12,1.09-1.45Z"/>
      <polygon class="cls-1" points="31.91 5.02 29.03 13.99 26.14 5.02 21.84 5.02 26.69 19.18 31.36 19.18 36.21 5.02 31.91 5.02"/>
      <path class="cls-1" d="M9.3,3.78C6.17,3.78,0,9.95,0,13.08s6.17,7.33,9.3,7.33,9.3-4.2,9.3-7.33S12.42,3.78,9.3,3.78ZM9.3,17.55c-1.56,0-6.44-2.91-6.44-4.47s4.87-6.44,6.44-6.44,6.44,4.87,6.44,6.44-4.87,4.47-6.44,4.47Z"/>
    </g>
  </g>
</svg>